<svg width="133" height="24" viewBox="0 0 133 24" fill="none" xmlns="http://www.w3.org/2000/svg">
  <g clip-path="url(#clip0_256_3)">
    <path d="M18 3C18.6566 3 19.3068 3.12933 19.9134 3.3806C20.52 3.63188 21.0712 4.00017 21.5355 4.46447C21.9998 4.92876 22.3681 5.47995 22.6194 6.08658C22.8707 6.69321 23 7.34339 23 8V16C23 16.6566 22.8707 17.3068 22.6194 17.9134C22.3681 18.52 21.9998 19.0712 21.5355 19.5355C21.0712 19.9998 20.52 20.3681 19.9134 20.6194C19.3068 20.8707 18.6566 21 18 21H6C5.34339 21 4.69321 20.8707 4.08658 20.6194C3.47995 20.3681 2.92876 19.9998 2.46447 19.5355C1.52678 18.5979 1 17.3261 1 16V8C1 6.67392 1.52678 5.40215 2.46447 4.46447C3.40215 3.52678 4.67392 3 6 3H18ZM9 9V15C9.00014 15.1768 9.04718 15.3505 9.13631 15.5032C9.22545 15.656 9.35349 15.7823 9.50739 15.8695C9.66129 15.9566 9.83555 16.0013 10.0124 15.9991C10.1892 15.9969 10.3623 15.9479 10.514 15.857L15.514 12.857C15.6619 12.7681 15.7842 12.6425 15.8691 12.4923C15.954 12.3421 15.9987 12.1725 15.9987 12C15.9987 11.8275 15.954 11.6579 15.8691 11.5077C15.7842 11.3575 15.6619 11.2319 15.514 11.143L10.514 8.143C10.3623 8.0521 10.1892 8.00306 10.0124 8.00087C9.83555 7.99868 9.66129 8.04342 9.50739 8.13054C9.35349 8.21765 9.22545 8.34402 9.13631 8.49677C9.04718 8.64951 9.00014 8.82315 9 9Z" fill="#FF0000" />
    <path d="M9 9V15C9.00014 15.1768 9.04718 15.3505 9.13631 15.5032C9.22545 15.656 9.35349 15.7823 9.50739 15.8695C9.66129 15.9566 9.83555 16.0013 10.0124 15.9991C10.1892 15.9969 10.3623 15.9479 10.514 15.857L15.514 12.857C15.6619 12.7681 15.7842 12.6425 15.8691 12.4923C15.954 12.3421 15.9987 12.1725 15.9987 12C15.9987 11.8275 15.954 11.6579 15.8691 11.5077C15.7842 11.3575 15.6619 11.2319 15.514 11.143L10.514 8.143C10.3623 8.0521 10.1892 8.00306 10.0124 8.00087C9.83555 7.99868 9.66129 8.04342 9.50739 8.13054C9.35349 8.21765 9.22545 8.34402 9.13631 8.49677C9.04718 8.64951 9.00014 8.82315 9 9Z" fill="white" />
  </g>
  <path d="M31.5781 5.625L33.9531 10.8125L36.3281 5.625H38.8828L35.1406 12.8594V17H32.7656V12.8594L29.0156 5.625H31.5781ZM45.1484 5.625V17H42.8125V5.625H45.1484ZM48.6484 5.625V7.46094H39.3672V5.625H48.6484ZM52.25 11.2344V13H47.8359V11.2344H52.25ZM56.7578 5.625V17H54.4219V5.625H56.7578ZM63.3828 12.9453H60.4844V11.1172H63.3828C63.8307 11.1172 64.1953 11.0443 64.4766 10.8984C64.7578 10.7474 64.9635 10.5391 65.0938 10.2734C65.224 10.0078 65.2891 9.70833 65.2891 9.375C65.2891 9.03646 65.224 8.72135 65.0938 8.42969C64.9635 8.13802 64.7578 7.90365 64.4766 7.72656C64.1953 7.54948 63.8307 7.46094 63.3828 7.46094H61.2969V17H58.9531V5.625H63.3828C64.2734 5.625 65.0365 5.78646 65.6719 6.10938C66.3125 6.42708 66.8021 6.86719 67.1406 7.42969C67.4792 7.99219 67.6484 8.63542 67.6484 9.35938C67.6484 10.0938 67.4792 10.7292 67.1406 11.2656C66.8021 11.8021 66.3125 12.2161 65.6719 12.5078C65.0365 12.7995 64.2734 12.9453 63.3828 12.9453ZM74.3516 5.625V17H72.0156V5.625H74.3516ZM77.8516 5.625V7.46094H68.5703V5.625H77.8516ZM83.4141 14.625L86.0938 5.625H88.7031L84.7422 17H83.0234L83.4141 14.625ZM80.9453 5.625L83.6172 14.625L84.0234 17H82.2891L78.3516 5.625H80.9453ZM93.125 11.2344V13H88.7109V11.2344H93.125ZM102.727 10.2578V12.0859H96.7891V10.2578H102.727ZM97.4844 5.625V17H95.1406V5.625H97.4844ZM104.398 5.625V17H102.062V5.625H104.398ZM105.938 12.8594V12.6953C105.938 12.0755 106.026 11.5052 106.203 10.9844C106.38 10.4583 106.638 10.0026 106.977 9.61719C107.315 9.23177 107.732 8.93229 108.227 8.71875C108.721 8.5 109.289 8.39062 109.93 8.39062C110.57 8.39062 111.141 8.5 111.641 8.71875C112.141 8.93229 112.56 9.23177 112.898 9.61719C113.242 10.0026 113.503 10.4583 113.68 10.9844C113.857 11.5052 113.945 12.0755 113.945 12.6953V12.8594C113.945 13.474 113.857 14.0443 113.68 14.5703C113.503 15.0911 113.242 15.5469 112.898 15.9375C112.56 16.3229 112.143 16.6224 111.648 16.8359C111.154 17.0495 110.586 17.1562 109.945 17.1562C109.305 17.1562 108.734 17.0495 108.234 16.8359C107.74 16.6224 107.32 16.3229 106.977 15.9375C106.638 15.5469 106.38 15.0911 106.203 14.5703C106.026 14.0443 105.938 13.474 105.938 12.8594ZM108.188 12.6953V12.8594C108.188 13.2135 108.219 13.5443 108.281 13.8516C108.344 14.1589 108.443 14.4297 108.578 14.6641C108.719 14.8932 108.901 15.0729 109.125 15.2031C109.349 15.3333 109.622 15.3984 109.945 15.3984C110.258 15.3984 110.526 15.3333 110.75 15.2031C110.974 15.0729 111.154 14.8932 111.289 14.6641C111.424 14.4297 111.523 14.1589 111.586 13.8516C111.654 13.5443 111.688 13.2135 111.688 12.8594V12.6953C111.688 12.3516 111.654 12.0286 111.586 11.7266C111.523 11.4193 111.422 11.1484 111.281 10.9141C111.146 10.6745 110.966 10.487 110.742 10.3516C110.518 10.2161 110.247 10.1484 109.93 10.1484C109.612 10.1484 109.341 10.2161 109.117 10.3516C108.898 10.487 108.719 10.6745 108.578 10.9141C108.443 11.1484 108.344 11.4193 108.281 11.7266C108.219 12.0286 108.188 12.3516 108.188 12.6953ZM117.531 10.3516V17H115.281V8.54688H117.391L117.531 10.3516ZM117.203 12.4766H116.594C116.594 11.8516 116.674 11.2891 116.836 10.7891C116.997 10.2839 117.224 9.85417 117.516 9.5C117.807 9.14062 118.154 8.86719 118.555 8.67969C118.961 8.48698 119.414 8.39062 119.914 8.39062C120.31 8.39062 120.672 8.44792 121 8.5625C121.328 8.67708 121.609 8.85938 121.844 9.10938C122.083 9.35938 122.266 9.6901 122.391 10.1016C122.521 10.513 122.586 11.0156 122.586 11.6094V17H120.32V11.6016C120.32 11.2266 120.268 10.9349 120.164 10.7266C120.06 10.5182 119.906 10.3724 119.703 10.2891C119.505 10.2005 119.26 10.1562 118.969 10.1562C118.667 10.1562 118.404 10.2161 118.18 10.3359C117.961 10.4557 117.779 10.6224 117.633 10.8359C117.492 11.0443 117.385 11.2891 117.312 11.5703C117.24 11.8516 117.203 12.1536 117.203 12.4766ZM123.938 12.8594V12.6953C123.938 12.0755 124.026 11.5052 124.203 10.9844C124.38 10.4583 124.638 10.0026 124.977 9.61719C125.315 9.23177 125.732 8.93229 126.227 8.71875C126.721 8.5 127.289 8.39062 127.93 8.39062C128.57 8.39062 129.141 8.5 129.641 8.71875C130.141 8.93229 130.56 9.23177 130.898 9.61719C131.242 10.0026 131.503 10.4583 131.68 10.9844C131.857 11.5052 131.945 12.0755 131.945 12.6953V12.8594C131.945 13.474 131.857 14.0443 131.68 14.5703C131.503 15.0911 131.242 15.5469 130.898 15.9375C130.56 16.3229 130.143 16.6224 129.648 16.8359C129.154 17.0495 128.586 17.1562 127.945 17.1562C127.305 17.1562 126.734 17.0495 126.234 16.8359C125.74 16.6224 125.32 16.3229 124.977 15.9375C124.638 15.5469 124.38 15.0911 124.203 14.5703C124.026 14.0443 123.938 13.474 123.938 12.8594ZM126.188 12.6953V12.8594C126.188 13.2135 126.219 13.5443 126.281 13.8516C126.344 14.1589 126.443 14.4297 126.578 14.6641C126.719 14.8932 126.901 15.0729 127.125 15.2031C127.349 15.3333 127.622 15.3984 127.945 15.3984C128.258 15.3984 128.526 15.3333 128.75 15.2031C128.974 15.0729 129.154 14.8932 129.289 14.6641C129.424 14.4297 129.523 14.1589 129.586 13.8516C129.654 13.5443 129.688 13.2135 129.688 12.8594V12.6953C129.688 12.3516 129.654 12.0286 129.586 11.7266C129.523 11.4193 129.422 11.1484 129.281 10.9141C129.146 10.6745 128.966 10.487 128.742 10.3516C128.518 10.2161 128.247 10.1484 127.93 10.1484C127.612 10.1484 127.341 10.2161 127.117 10.3516C126.898 10.487 126.719 10.6745 126.578 10.9141C126.443 11.1484 126.344 11.4193 126.281 11.7266C126.219 12.0286 126.188 12.3516 126.188 12.6953Z" fill="white" />
  <defs>
    <clipPath id="clip0_256_3">
      <rect width="24" height="24" fill="white" />
    </clipPath>
  </defs>
</svg>